<svg width="30" height="28" viewBox="0 0 30 28" fill="none" xmlns="http://www.w3.org/2000/svg">
<path d="M14.3051 24.7604C13.2332 24.0021 3.28033 15.4691 3.16907 15.3759C2.7295 14.9883 2.45273 14.5864 2.37675 14.218C2.29806 13.8353 2.43102 13.5004 2.78377 13.1894C3.11209 12.8999 3.51368 12.7468 3.94512 12.7468C4.47153 12.7468 5.0115 12.9669 5.46194 13.3664L9.97439 17.1891C10.0531 17.2561 10.1562 17.2896 10.2566 17.2896C10.3624 17.2896 10.4655 17.2537 10.5442 17.1843C10.7016 17.0456 10.7016 16.8207 10.5469 16.682L3.34274 10.1226C2.62096 9.48629 2.28178 8.51267 3.13923 7.75674C3.46755 7.46728 3.86914 7.31418 4.30058 7.31418C4.82699 7.31418 5.36697 7.53426 5.8174 7.93376L13.1871 14.2683C13.2658 14.3353 13.3689 14.3711 13.472 14.3711C13.5751 14.3711 13.681 14.3353 13.7597 14.2659C13.917 14.1271 13.9197 13.9023 13.7624 13.7611L4.91111 5.76165C4.50138 5.40043 4.25445 4.96745 4.21104 4.54642C4.17034 4.11822 4.34128 3.72112 4.7076 3.39817C5.03592 3.10872 5.43752 2.95562 5.86895 2.95562C6.39536 2.95562 6.93534 3.1757 7.38577 3.5728L16.4134 11.3331C16.4921 11.4 16.5952 11.4359 16.6983 11.4359C16.8014 11.4359 16.9072 11.4 16.9859 11.3307C17.1433 11.1919 17.146 10.9671 16.9887 10.8259L10.433 4.88611C10.0205 4.5225 9.7736 4.09191 9.7329 3.67088C9.6922 3.24268 9.86314 2.84558 10.2295 2.52263C10.5578 2.23318 10.9594 2.08008 11.3908 2.08008C11.9172 2.08008 12.4572 2.30016 12.9076 2.69965C15.3117 4.78086 21.5879 10.2231 21.7996 10.424C22.6055 10.9144 22.7683 10.1728 22.809 9.69202C22.8551 9.13225 22.1279 7.17783 22.5512 5.41957C23.2621 3.0824 25.3108 3.46515 25.3569 3.48429C26.4803 3.94838 26.2659 4.64211 25.867 6.03676L25.8263 6.31186C25.4085 8.1347 28.2793 13.5363 28.4909 13.9405C29.617 16.1126 30.9141 20.5167 26.6187 24.3035C21.9108 28.4539 16.0824 26.3273 14.3051 24.7604Z" fill="url(#paint0_radial_2_33)"/>
<path d="M20.3451 27.0904C17.458 27.0904 15.0024 25.8728 14.0337 25.0283C13.1626 24.4016 7.6652 19.7225 3.18801 15.8926C3.00621 15.7371 2.90039 15.6486 2.88954 15.6366C2.38212 15.1893 2.06736 14.7228 1.97782 14.2826C1.87471 13.7827 2.05108 13.3305 2.49609 12.9358C2.9031 12.577 3.40238 12.388 3.94507 12.388C4.58273 12.388 5.2231 12.6464 5.74951 13.1128L10.2565 16.9308L3.04963 10.3714C2.21931 9.63939 1.80144 8.42655 2.85155 7.50317C3.25856 7.14434 3.75784 6.95536 4.30053 6.95536C4.93819 6.95536 5.57856 7.21371 6.10497 7.68019L13.4693 14.0099L4.62071 6.01284C4.14857 5.5966 3.85824 5.08706 3.80668 4.57992C3.75512 4.03928 3.96677 3.5441 4.41992 3.1446C4.82694 2.78578 5.32621 2.59679 5.8689 2.59679C6.50384 2.59679 7.14422 2.85276 7.67334 3.31923L16.6983 11.0771L10.1426 5.1373C9.66772 4.71866 9.37738 4.20913 9.32854 3.70198C9.27698 3.16374 9.48863 2.66856 9.94178 2.26906C10.3488 1.91024 10.8481 1.72125 11.3908 1.72125C12.0284 1.72125 12.6688 1.97961 13.1952 2.44609L15.1516 4.13736C18.6384 7.15152 21.5526 9.67528 21.8647 9.95755C22.0166 10.0652 22.2147 10.1059 22.2988 10.07C22.3531 10.0461 22.4128 9.93602 22.4019 9.70398C22.3856 9.29731 22.3205 8.79256 22.2527 8.2591C22.117 7.1874 21.9759 6.07743 22.1523 5.34542C22.5376 4.07516 23.2946 3.53692 23.859 3.30488C24.6351 2.98911 25.3867 3.09915 25.5305 3.15896C26.9415 3.74265 26.662 4.71866 26.2767 6.07264L26.2686 6.10613L26.2252 6.38602C25.943 7.61082 27.3919 10.9958 28.8409 13.754L28.8626 13.7922C29.8313 15.6581 31.5761 20.4449 26.9089 24.5595C24.7626 26.4469 22.4399 27.0904 20.3451 27.0904ZM3.94507 13.1057C3.62488 13.1057 3.32097 13.2229 3.07134 13.443C2.81356 13.6702 2.72401 13.8903 2.77828 14.1534C2.83798 14.4429 3.07948 14.7874 3.45665 15.1223C3.45936 15.1247 3.5679 15.218 3.75512 15.3759C10.11 20.8133 13.9468 24.0451 14.5601 24.4805L14.5926 24.5068C16.0904 25.8273 21.6557 28.1717 26.331 24.0499C30.6372 20.2535 29.0173 15.8208 28.1191 14.0889L28.1002 14.053C27.1667 12.278 25.0448 7.97204 25.422 6.25445L25.4844 5.89562C25.9023 4.4316 25.9267 4.1254 25.2185 3.82399C25.0095 3.79049 23.5117 3.63022 22.9392 5.51287C22.7954 6.11331 22.9338 7.21132 23.0559 8.18016C23.1264 8.72797 23.1915 9.24707 23.2078 9.68006C23.2349 10.3618 22.8686 10.6226 22.6461 10.7183C22.193 10.912 21.653 10.747 21.3165 10.4982L21.2813 10.4695C21.1157 10.3116 17.1785 6.90751 14.5736 4.65407L12.6145 2.95801C11.947 2.36714 11.0869 2.26906 10.5089 2.7786C10.2267 3.02739 10.0992 3.31923 10.129 3.64218C10.1616 3.97948 10.3678 4.33113 10.7124 4.63494L17.2816 10.5747C17.591 10.8522 17.591 11.3067 17.2762 11.5842C16.975 11.8498 16.4432 11.8546 16.1339 11.5914L7.1008 3.82877C6.43329 3.24029 5.57042 3.14221 4.99517 3.65175C4.71297 3.90054 4.58544 4.19238 4.61529 4.51533C4.65056 4.85263 4.85678 5.20667 5.19868 5.50569L14.0526 13.51C14.3647 13.7874 14.362 14.242 14.0472 14.5195C13.746 14.785 13.2142 14.7898 12.9049 14.5266L5.53243 8.18973C4.86492 7.59646 4.00205 7.50078 3.4268 8.01031C2.72402 8.62989 3.09847 9.39778 3.63031 9.86904L10.8399 16.4332C11.1493 16.7107 11.1465 17.1628 10.8318 17.4379C10.5279 17.7058 10.0015 17.7082 9.69214 17.4475L5.17968 13.6248C4.7998 13.2875 4.36294 13.1057 3.94507 13.1057Z" fill="#EDA600"/>
<path d="M21.1511 10.192C19.6614 12.8737 19.854 16.627 22.0899 19.6388C22.3423 20.0454 22.7737 19.8469 22.5539 19.4283C19.854 14.3353 22.6842 10.6657 22.6842 10.6657L21.1511 10.192Z" fill="#EDA600"/>
<path d="M15.2927 0.135253C16.1122 -0.0537299 16.9859 -0.0369846 17.8352 0.137645C18.6791 0.317059 19.523 0.695025 20.1498 1.31221C20.763 1.92461 21.1402 2.66858 21.2677 3.44843C21.3871 4.22111 21.2759 5.01771 20.8607 5.67795C20.8119 4.93637 20.6653 4.2546 20.4184 3.62545C20.2909 3.31208 20.1417 3.01305 19.9599 2.73078C19.7808 2.45089 19.5691 2.1734 19.3439 1.94614C18.8853 1.47966 18.2639 1.11605 17.5666 0.833771C16.8665 0.541925 16.104 0.326628 15.2927 0.135253Z" fill="#B0BEC5"/>
<path d="M15.5179 2.40302C15.9711 2.14945 16.5382 2.09682 17.0727 2.18054C17.6127 2.26427 18.1283 2.5011 18.5353 2.82883C18.9396 3.16134 19.2272 3.57997 19.4063 4.01535C19.4931 4.23304 19.5366 4.46269 19.5773 4.68516C19.5908 4.91481 19.5908 5.14446 19.5501 5.37411C19.3629 5.19948 19.2164 5.02485 19.078 4.85501C18.9179 4.69473 18.7931 4.52489 18.6493 4.3694C18.3671 4.0608 18.093 3.78092 17.7972 3.53213C17.4933 3.29052 17.1731 3.07761 16.8014 2.89342C16.4324 2.70443 16.0172 2.54655 15.5179 2.40302Z" fill="#90A4AE"/>
<path d="M0.00518621 17.5599C0.387782 18.2202 0.786658 18.8326 1.25066 19.3732C1.71194 19.9138 2.24107 20.3731 2.85702 20.6722C3.1555 20.8181 3.51096 20.9449 3.85828 21.0406C4.20831 21.1386 4.57191 21.2056 4.94637 21.2511C5.69528 21.3324 6.48218 21.3181 7.31521 21.2056C6.66941 21.7008 5.80653 21.964 4.92738 22.0214C4.03737 22.074 3.13379 21.9041 2.32518 21.5023C1.51115 21.0932 0.91419 20.4425 0.539735 19.7512C0.16528 19.0551 -0.0355155 18.3063 0.00518621 17.5599Z" fill="#B0BEC5"/>
<path d="M2.56936 17.2801C2.83257 17.682 3.09306 18.0049 3.37797 18.2872C3.66017 18.5695 3.96407 18.8015 4.29511 19.012C4.63158 19.2154 5.00061 19.3948 5.4022 19.5742C5.60299 19.6651 5.81735 19.7369 6.029 19.8421C6.24879 19.9258 6.47129 20.0144 6.70465 20.1411C6.45773 20.2225 6.20538 20.2703 5.9476 20.3062C5.69254 20.3158 5.42933 20.3277 5.16884 20.2966C4.64786 20.2344 4.12688 20.0742 3.67102 19.7943C3.2233 19.5096 2.85156 19.1149 2.64805 18.6676C2.44183 18.2226 2.38213 17.725 2.56936 17.2801Z" fill="#90A4AE"/>
<defs>
<radialGradient id="paint0_radial_2_33" cx="0" cy="0" r="1" gradientUnits="userSpaceOnUse" gradientTransform="translate(10.1036 8.14903) rotate(-41.3996) scale(23.2785 23.0949)">
<stop offset="0.3533" stop-color="#FFCA28"/>
<stop offset="0.8723" stop-color="#FFB300"/>
</radialGradient>
</defs>
</svg>
